<svg width="42" height="43" viewBox="0 0 42 43" fill="none" xmlns="http://www.w3.org/2000/svg">
<path d="M4.58333 42.125C3.32292 42.125 2.24392 41.6762 1.34635 40.7786C0.448785 39.8811 0 38.8021 0 37.5417V5.45833C0 4.19792 0.448785 3.11892 1.34635 2.22135C2.24392 1.32378 3.32292 0.875 4.58333 0.875H22.9167V5.45833H4.58333V37.5417H36.6667V19.2083H41.25V37.5417C41.25 38.8021 40.8012 39.8811 39.9036 40.7786C39.0061 41.6762 37.9271 42.125 36.6667 42.125H4.58333ZM6.875 32.9583H34.375L25.7812 21.5L18.9062 30.6667L13.75 23.7917L6.875 32.9583ZM32.0833 14.625V10.0417H27.5V5.45833H32.0833V0.875H36.6667V5.45833H41.25V10.0417H36.6667V14.625H32.0833Z" fill="#553B82"/>
</svg>
