<svg width="28" height="28" viewBox="0 0 28 28" fill="none" xmlns="http://www.w3.org/2000/svg">
<path d="M12.2926 20.275C12.6462 20.6993 13.2767 20.7566 13.701 20.4031C14.1253 20.0495 14.1826 19.4189 13.829 18.9947L12.2926 20.275ZM8.36516 14L7.59694 13.3599C7.2879 13.7307 7.2879 14.2694 7.59694 14.6402L8.36516 14ZM13.829 9.00543C14.1826 8.58115 14.1253 7.95059 13.701 7.59702C13.2767 7.24346 12.6462 7.30078 12.2926 7.72506L13.829 9.00543ZM19.6348 15C20.187 15 20.6348 14.5523 20.6348 14C20.6348 13.4478 20.187 13 19.6348 13V15ZM13.829 18.9947L9.13338 13.3599L7.59694 14.6402L12.2926 20.275L13.829 18.9947ZM9.13338 14.6402L13.829 9.00543L12.2926 7.72506L7.59694 13.3599L9.13338 14.6402ZM8.36516 15H19.6348V13H8.36516V15ZM5.6915 5.6915C10.2802 1.10283 17.7198 1.10283 22.3085 5.6915L23.7227 4.27728C18.353 -1.09243 9.64699 -1.09243 4.27728 4.27728L5.6915 5.6915ZM22.3085 5.6915C26.8972 10.2802 26.8972 17.7198 22.3085 22.3085L23.7227 23.7227C29.0924 18.353 29.0924 9.64699 23.7227 4.27728L22.3085 5.6915ZM22.3085 22.3085C17.7198 26.8972 10.2802 26.8972 5.6915 22.3085L4.27728 23.7227C9.64699 29.0924 18.353 29.0924 23.7227 23.7227L22.3085 22.3085ZM5.6915 22.3085C1.10283 17.7198 1.10283 10.2802 5.6915 5.6915L4.27728 4.27728C-1.09243 9.64699 -1.09243 18.353 4.27728 23.7227L5.6915 22.3085Z" fill="#553B82"/>
</svg>
