<svg width="393" height="744" viewBox="0 0 393 744" fill="none" xmlns="http://www.w3.org/2000/svg">
<g clip-path="url(#clip0_1631_665)">
<g filter="url(#filter0_f_1631_665)">
<path d="M340.25 76C347.04 76 350 73.1432 350 66.25C350 73.1432 352.939 76 359.75 76C352.939 76 350 78.9391 350 85.75C350 78.9391 347.04 76 340.25 76Z" fill="#FFDF58"/>
<path d="M340.25 76C347.04 76 350 73.1432 350 66.25C350 73.1432 352.939 76 359.75 76C352.939 76 350 78.9391 350 85.75C350 78.9391 347.04 76 340.25 76Z" stroke="#FFDF58" stroke-width="0.75" stroke-linejoin="round"/>
</g>
</g>
<g clip-path="url(#clip1_1631_665)">
<g filter="url(#filter1_f_1631_665)">
<path d="M346.25 607C353.04 607 356 604.143 356 597.25C356 604.143 358.939 607 365.75 607C358.939 607 356 609.939 356 616.75C356 609.939 353.04 607 346.25 607Z" fill="#FFDF58"/>
<path d="M346.25 607C353.04 607 356 604.143 356 597.25C356 604.143 358.939 607 365.75 607C358.939 607 356 609.939 356 616.75C356 609.939 353.04 607 346.25 607Z" stroke="#FFDF58" stroke-width="0.75" stroke-linejoin="round"/>
</g>
</g>
<g clip-path="url(#clip2_1631_665)">
<g filter="url(#filter2_f_1631_665)">
<path d="M24.25 166C31.0403 166 34 163.143 34 156.25C34 163.143 36.9391 166 43.75 166C36.9391 166 34 168.939 34 175.75C34 168.939 31.0403 166 24.25 166Z" fill="#FFDF58"/>
<path d="M24.25 166C31.0403 166 34 163.143 34 156.25C34 163.143 36.9391 166 43.75 166C36.9391 166 34 168.939 34 175.75C34 168.939 31.0403 166 24.25 166Z" stroke="#FFDF58" stroke-width="0.75" stroke-linejoin="round"/>
</g>
</g>
<g clip-path="url(#clip3_1631_665)">
<g filter="url(#filter3_f_1631_665)">
<path d="M68.25 89C72.951 89 75 87.0223 75 82.25C75 87.0223 77.0347 89 81.75 89C77.0347 89 75 91.0347 75 95.75C75 91.0347 72.951 89 68.25 89Z" fill="white"/>
<path d="M68.25 89C72.951 89 75 87.0223 75 82.25C75 87.0223 77.0347 89 81.75 89C77.0347 89 75 91.0347 75 95.75C75 91.0347 72.951 89 68.25 89Z" stroke="white" stroke-width="0.75" stroke-linejoin="round"/>
</g>
</g>
<g clip-path="url(#clip4_1631_665)">
<g filter="url(#filter4_f_1631_665)">
<path d="M268.25 33C272.951 33 275 31.0223 275 26.25C275 31.0223 277.035 33 281.75 33C277.035 33 275 35.0347 275 39.75C275 35.0347 272.951 33 268.25 33Z" fill="white"/>
<path d="M268.25 33C272.951 33 275 31.0223 275 26.25C275 31.0223 277.035 33 281.75 33C277.035 33 275 35.0347 275 39.75C275 35.0347 272.951 33 268.25 33Z" stroke="white" stroke-width="0.75" stroke-linejoin="round"/>
</g>
</g>
<g clip-path="url(#clip5_1631_665)">
<g filter="url(#filter5_f_1631_665)">
<path d="M34.25 735C38.951 735 41 733.022 41 728.25C41 733.022 43.0347 735 47.75 735C43.0347 735 41 737.035 41 741.75C41 737.035 38.951 735 34.25 735Z" fill="white"/>
<path d="M34.25 735C38.951 735 41 733.022 41 728.25C41 733.022 43.0347 735 47.75 735C43.0347 735 41 737.035 41 741.75C41 737.035 38.951 735 34.25 735Z" stroke="white" stroke-width="0.75" stroke-linejoin="round"/>
</g>
</g>
<g filter="url(#filter6_f_1631_665)">
<circle cx="101" cy="138" r="2" fill="#FFDF58"/>
</g>
<g filter="url(#filter7_f_1631_665)">
<circle cx="297.5" cy="169.5" r="3.5" fill="white"/>
</g>
<g filter="url(#filter8_f_1631_665)">
<circle cx="344" cy="129" r="2" fill="#FFDF58"/>
</g>
<g filter="url(#filter9_f_1631_665)">
<circle cx="363" cy="204" r="5" fill="#D693B9"/>
</g>
<g filter="url(#filter10_f_1631_665)">
<circle cx="6" cy="624" r="13" fill="#F6F4F4"/>
</g>
<g filter="url(#filter11_f_1631_665)">
<circle cx="99" cy="683" r="2" fill="white"/>
</g>
<g filter="url(#filter12_f_1631_665)">
<circle cx="47" cy="237" r="4" fill="white"/>
</g>
<g filter="url(#filter13_f_1631_665)">
<circle cx="334" cy="709" r="4" fill="white"/>
</g>
<defs>
<filter id="filter0_f_1631_665" x="335.875" y="61.875" width="28.25" height="28.25" filterUnits="userSpaceOnUse" color-interpolation-filters="sRGB">
<feFlood flood-opacity="0" result="BackgroundImageFix"/>
<feBlend mode="normal" in="SourceGraphic" in2="BackgroundImageFix" result="shape"/>
<feGaussianBlur stdDeviation="2" result="effect1_foregroundBlur_1631_665"/>
</filter>
<filter id="filter1_f_1631_665" x="341.875" y="592.875" width="28.25" height="28.25" filterUnits="userSpaceOnUse" color-interpolation-filters="sRGB">
<feFlood flood-opacity="0" result="BackgroundImageFix"/>
<feBlend mode="normal" in="SourceGraphic" in2="BackgroundImageFix" result="shape"/>
<feGaussianBlur stdDeviation="2" result="effect1_foregroundBlur_1631_665"/>
</filter>
<filter id="filter2_f_1631_665" x="18.875" y="150.875" width="30.25" height="30.25" filterUnits="userSpaceOnUse" color-interpolation-filters="sRGB">
<feFlood flood-opacity="0" result="BackgroundImageFix"/>
<feBlend mode="normal" in="SourceGraphic" in2="BackgroundImageFix" result="shape"/>
<feGaussianBlur stdDeviation="2.5" result="effect1_foregroundBlur_1631_665"/>
</filter>
<filter id="filter3_f_1631_665" x="65.875" y="79.875" width="18.25" height="18.25" filterUnits="userSpaceOnUse" color-interpolation-filters="sRGB">
<feFlood flood-opacity="0" result="BackgroundImageFix"/>
<feBlend mode="normal" in="SourceGraphic" in2="BackgroundImageFix" result="shape"/>
<feGaussianBlur stdDeviation="1" result="effect1_foregroundBlur_1631_665"/>
</filter>
<filter id="filter4_f_1631_665" x="265.875" y="23.875" width="18.25" height="18.25" filterUnits="userSpaceOnUse" color-interpolation-filters="sRGB">
<feFlood flood-opacity="0" result="BackgroundImageFix"/>
<feBlend mode="normal" in="SourceGraphic" in2="BackgroundImageFix" result="shape"/>
<feGaussianBlur stdDeviation="1" result="effect1_foregroundBlur_1631_665"/>
</filter>
<filter id="filter5_f_1631_665" x="31.875" y="725.875" width="18.25" height="18.25" filterUnits="userSpaceOnUse" color-interpolation-filters="sRGB">
<feFlood flood-opacity="0" result="BackgroundImageFix"/>
<feBlend mode="normal" in="SourceGraphic" in2="BackgroundImageFix" result="shape"/>
<feGaussianBlur stdDeviation="1" result="effect1_foregroundBlur_1631_665"/>
</filter>
<filter id="filter6_f_1631_665" x="95" y="132" width="12" height="12" filterUnits="userSpaceOnUse" color-interpolation-filters="sRGB">
<feFlood flood-opacity="0" result="BackgroundImageFix"/>
<feBlend mode="normal" in="SourceGraphic" in2="BackgroundImageFix" result="shape"/>
<feGaussianBlur stdDeviation="2" result="effect1_foregroundBlur_1631_665"/>
</filter>
<filter id="filter7_f_1631_665" x="290" y="162" width="15" height="15" filterUnits="userSpaceOnUse" color-interpolation-filters="sRGB">
<feFlood flood-opacity="0" result="BackgroundImageFix"/>
<feBlend mode="normal" in="SourceGraphic" in2="BackgroundImageFix" result="shape"/>
<feGaussianBlur stdDeviation="2" result="effect1_foregroundBlur_1631_665"/>
</filter>
<filter id="filter8_f_1631_665" x="338" y="123" width="12" height="12" filterUnits="userSpaceOnUse" color-interpolation-filters="sRGB">
<feFlood flood-opacity="0" result="BackgroundImageFix"/>
<feBlend mode="normal" in="SourceGraphic" in2="BackgroundImageFix" result="shape"/>
<feGaussianBlur stdDeviation="2" result="effect1_foregroundBlur_1631_665"/>
</filter>
<filter id="filter9_f_1631_665" x="348" y="189" width="30" height="30" filterUnits="userSpaceOnUse" color-interpolation-filters="sRGB">
<feFlood flood-opacity="0" result="BackgroundImageFix"/>
<feBlend mode="normal" in="SourceGraphic" in2="BackgroundImageFix" result="shape"/>
<feGaussianBlur stdDeviation="5" result="effect1_foregroundBlur_1631_665"/>
</filter>
<filter id="filter10_f_1631_665" x="-37" y="581" width="86" height="86" filterUnits="userSpaceOnUse" color-interpolation-filters="sRGB">
<feFlood flood-opacity="0" result="BackgroundImageFix"/>
<feBlend mode="normal" in="SourceGraphic" in2="BackgroundImageFix" result="shape"/>
<feGaussianBlur stdDeviation="15" result="effect1_foregroundBlur_1631_665"/>
</filter>
<filter id="filter11_f_1631_665" x="93" y="677" width="12" height="12" filterUnits="userSpaceOnUse" color-interpolation-filters="sRGB">
<feFlood flood-opacity="0" result="BackgroundImageFix"/>
<feBlend mode="normal" in="SourceGraphic" in2="BackgroundImageFix" result="shape"/>
<feGaussianBlur stdDeviation="2" result="effect1_foregroundBlur_1631_665"/>
</filter>
<filter id="filter12_f_1631_665" x="39" y="229" width="16" height="16" filterUnits="userSpaceOnUse" color-interpolation-filters="sRGB">
<feFlood flood-opacity="0" result="BackgroundImageFix"/>
<feBlend mode="normal" in="SourceGraphic" in2="BackgroundImageFix" result="shape"/>
<feGaussianBlur stdDeviation="2" result="effect1_foregroundBlur_1631_665"/>
</filter>
<filter id="filter13_f_1631_665" x="326" y="701" width="16" height="16" filterUnits="userSpaceOnUse" color-interpolation-filters="sRGB">
<feFlood flood-opacity="0" result="BackgroundImageFix"/>
<feBlend mode="normal" in="SourceGraphic" in2="BackgroundImageFix" result="shape"/>
<feGaussianBlur stdDeviation="2" result="effect1_foregroundBlur_1631_665"/>
</filter>
<clipPath id="clip0_1631_665">
<rect width="26" height="26" fill="white" transform="translate(337 63)"/>
</clipPath>
<clipPath id="clip1_1631_665">
<rect width="26" height="26" fill="white" transform="translate(343 594)"/>
</clipPath>
<clipPath id="clip2_1631_665">
<rect width="26" height="26" fill="white" transform="translate(21 153)"/>
</clipPath>
<clipPath id="clip3_1631_665">
<rect width="18" height="18" fill="white" transform="translate(66 80)"/>
</clipPath>
<clipPath id="clip4_1631_665">
<rect width="18" height="18" fill="white" transform="translate(266 24)"/>
</clipPath>
<clipPath id="clip5_1631_665">
<rect width="18" height="18" fill="white" transform="translate(32 726)"/>
</clipPath>
</defs>
</svg>
