<svg width="128" height="128" viewBox="0 0 128 128" fill="none" xmlns="http://www.w3.org/2000/svg">
<g filter="url(#filter0_d_2005_3407)">
<path d="M67.8455 105.958H102.612C101.888 108.649 100.646 110.822 98.8871 112.477C97.1281 114.133 94.8517 115.167 92.058 115.581L24.3871 123.807C20.9726 124.325 17.8942 123.523 15.1522 121.402C12.4102 119.28 10.8323 116.513 10.4184 113.098L2.19234 45.272C1.77845 41.8574 2.60623 38.8049 4.67567 36.1147C6.74512 33.4244 9.48713 31.8723 12.9017 31.4584L20.0413 30.5272V42.9438L14.4538 43.7199L22.8351 111.546L67.8455 105.958ZM44.8746 93.5418C41.46 93.5418 38.537 92.326 36.1054 89.8944C33.6738 87.4628 32.458 84.5397 32.458 81.1251V12.8334C32.458 9.41883 33.6738 6.49574 36.1054 4.06414C38.537 1.63255 41.46 0.416748 44.8746 0.416748H113.166C116.581 0.416748 119.504 1.63255 121.936 4.06414C124.367 6.49574 125.583 9.41883 125.583 12.8334V81.1251C125.583 84.5397 124.367 87.4628 121.936 89.8944C119.504 92.326 116.581 93.5418 113.166 93.5418H44.8746ZM44.8746 81.1251H113.166V12.8334H44.8746V81.1251ZM79.1757 74.9168C86.2118 74.9168 92.1873 72.4852 97.1022 67.622C102.017 62.7588 104.733 56.9126 105.251 50.0834C98.2146 50.0834 92.1873 52.515 87.1689 57.3782C82.1505 62.2414 79.4861 68.0876 79.1757 74.9168ZM79.1757 74.9168C78.8653 68.0876 76.2009 62.2414 71.1824 57.3782C66.164 52.515 60.1368 50.0834 53.1007 50.0834C53.618 56.9126 56.3342 62.7588 61.2491 67.622C66.164 72.4852 72.1396 74.9168 79.1757 74.9168ZM79.1757 56.2918C80.9347 56.2918 82.4092 55.6968 83.5991 54.5069C84.7891 53.3169 85.384 51.8424 85.384 50.0834V48.5313L86.9361 49.1522C88.4882 49.773 90.0661 49.9282 91.67 49.6178C93.2738 49.3074 94.4896 48.4279 95.3174 46.9793C96.2486 45.4272 96.559 43.7716 96.2486 42.0126C95.9382 40.2536 94.9035 39.0119 93.1444 38.2876L91.5924 37.6668L93.1444 37.0459C94.9035 36.3216 95.9123 35.0541 96.171 33.2433C96.4297 31.4326 96.1451 29.8029 95.3174 28.3543C94.3861 26.8022 93.1444 25.8968 91.5924 25.6381C90.0403 25.3794 88.4882 25.5605 86.9361 26.1813L85.384 26.8022V25.2501C85.384 23.4911 84.7891 22.0166 83.5991 20.8266C82.4092 19.6367 80.9347 19.0417 79.1757 19.0417C77.4167 19.0417 75.9422 19.6367 74.7522 20.8266C73.5623 22.0166 72.9673 23.4911 72.9673 25.2501V26.8022L71.4153 26.1813C69.8632 25.5605 68.3111 25.3794 66.759 25.6381C65.2069 25.8968 63.9653 26.8022 63.034 28.3543C62.2062 29.8029 61.9217 31.4326 62.1804 33.2433C62.439 35.0541 63.4479 36.3216 65.2069 37.0459L66.759 37.6668L65.2069 38.2876C63.4479 39.0119 62.4132 40.2536 62.1028 42.0126C61.7923 43.7716 62.1028 45.4272 63.034 46.9793C63.8618 48.4279 65.0776 49.3074 66.6814 49.6178C68.2852 49.9282 69.8632 49.773 71.4153 49.1522L72.9673 48.5313V50.0834C72.9673 51.8424 73.5623 53.3169 74.7522 54.5069C75.9422 55.6968 77.4167 56.2918 79.1757 56.2918ZM79.1757 43.8751C77.4167 43.8751 75.9422 43.2801 74.7522 42.0902C73.5623 40.9003 72.9673 39.4258 72.9673 37.6668C72.9673 35.9077 73.5623 34.4332 74.7522 33.2433C75.9422 32.0534 77.4167 31.4584 79.1757 31.4584C80.9347 31.4584 82.4092 32.0534 83.5991 33.2433C84.7891 34.4332 85.384 35.9077 85.384 37.6668C85.384 39.4258 84.7891 40.9003 83.5991 42.0902C82.4092 43.2801 80.9347 43.8751 79.1757 43.8751Z" fill="#553B82"/>
</g>
<defs>
<filter id="filter0_d_2005_3407" x="0.0888672" y="0.416748" width="127.494" height="127.543" filterUnits="userSpaceOnUse" color-interpolation-filters="sRGB">
<feFlood flood-opacity="0" result="BackgroundImageFix"/>
<feColorMatrix in="SourceAlpha" type="matrix" values="0 0 0 0 0 0 0 0 0 0 0 0 0 0 0 0 0 0 127 0" result="hardAlpha"/>
<feOffset dy="2"/>
<feGaussianBlur stdDeviation="1"/>
<feComposite in2="hardAlpha" operator="out"/>
<feColorMatrix type="matrix" values="0 0 0 0 0 0 0 0 0 0 0 0 0 0 0 0 0 0 0.25 0"/>
<feBlend mode="normal" in2="BackgroundImageFix" result="effect1_dropShadow_2005_3407"/>
<feBlend mode="normal" in="SourceGraphic" in2="effect1_dropShadow_2005_3407" result="shape"/>
</filter>
</defs>
</svg>
